<svg width="264" height="32" viewBox="0 0 264 32" fill="none" xmlns="http://www.w3.org/2000/svg">
<g clip-path="url(#clip0_5133_166894)">
<path d="M29.1942 2.8058C30.515 4.09779 31.1432 5.95873 31.5191 8.25992C31.8832 10.5476 31.9932 13.2738 32 16.0017C31.9932 18.7279 31.8832 21.4541 31.5191 23.7418C31.1432 26.0413 30.515 27.9039 29.1959 29.1959C27.9039 30.5167 26.043 31.1449 23.7418 31.5191C21.4541 31.8832 18.7279 31.9932 16 32C13.2738 31.9932 10.5476 31.8832 8.25992 31.5191C5.96042 31.1432 4.09779 30.515 2.8058 29.1959C1.48502 27.9039 0.85681 26.043 0.482591 23.7418C0.116838 21.4524 0.0067732 18.7262 0 16C0.0067732 13.2738 0.116838 10.5476 0.480897 8.25992C0.85681 5.96042 1.48502 4.09779 2.80411 2.8058C4.09609 1.48502 5.95703 0.85681 8.25823 0.482591C10.5459 0.116838 13.2738 0.0067732 16 0C18.7262 0.0067732 21.4524 0.116838 23.7401 0.480897C26.0396 0.85681 27.9022 1.48502 29.1942 2.80411V2.8058Z" fill="#D8EDDD"/>
<path d="M23.8739 8.24991C23.8739 8.26684 23.8722 8.28377 23.8688 8.29901C23.0916 12.0548 20.5161 16.4015 16.5368 20.1132C14.9333 21.6084 13.2434 22.8682 11.5484 23.874C11.5314 23.8858 11.5145 23.896 11.4959 23.9062C11.4332 23.9383 11.3621 23.9654 11.2859 23.9824C11.2266 23.9942 11.1674 24.001 11.1115 24.001H8.24982C8.2278 24.001 8.20748 23.9959 8.18886 23.9841C8.14991 23.9637 8.12451 23.9214 8.12451 23.8757V23.8435C8.13467 23.8029 8.14991 23.7572 8.17192 23.7097C8.19394 23.6623 8.21764 23.62 8.24304 23.5844C8.24812 23.576 8.2532 23.5692 8.25828 23.5624C9.40295 21.9284 10.5459 19.9184 11.5602 17.6748C13.0215 14.4423 13.9427 11.33 14.2526 8.90014C14.2526 8.87982 14.2576 8.8595 14.2593 8.84087C14.3372 8.36505 14.7504 8.00269 15.2465 8.00269H23.6233C23.7605 8.00269 23.8722 8.11444 23.8722 8.2516L23.8739 8.24991Z" fill="#00B262"/>
<path d="M18.5604 18.0389C18.4944 18.1151 18.4249 18.193 18.3555 18.2692C18.6146 17.5546 18.7551 16.7858 18.7551 15.9849C18.7551 13.2824 17.155 10.9558 14.8504 9.89749C14.8351 9.89241 14.8216 9.88564 14.8063 9.87886C14.4762 9.718 14.2476 9.38103 14.2476 8.98988C14.2476 8.9594 14.2476 8.93062 14.2526 8.90014C14.2526 8.87982 14.256 8.8578 14.2594 8.83918C14.2645 8.81039 14.2696 8.7833 14.2763 8.75451C14.2763 8.74943 14.278 8.74605 14.2797 8.74266C14.3932 8.31933 14.7776 8.00777 15.2364 8.00269H15.7868C17.5004 9.25234 18.7636 11.1471 19.126 13.4737C19.385 15.018 19.1649 16.6097 18.5587 18.0406L18.5604 18.0389Z" fill="#78C583"/>
<path d="M19.7829 13.6515C19.7609 15.0722 19.4189 16.4641 18.8228 17.7375C18.8025 17.7629 18.7805 17.7883 18.7568 17.8137C20.0911 14.571 19.4781 10.6256 16.7485 8.00098H18.2844C19.2783 9.62655 19.8405 11.5569 19.7812 13.6515H19.7829Z" fill="#78C583"/>
<path d="M19.1041 17.4073C20.4046 14.4271 20.3317 10.927 18.8247 8.00098H19.7035C20.3876 10.0058 20.5671 12.2258 20.0879 14.5066C19.8898 15.5175 19.5528 16.4912 19.1041 17.4073Z" fill="#78C583"/>
<path d="M19.9675 15.7207C20.0962 15.338 20.2097 14.9486 20.2977 14.5523C20.8328 12.2698 20.721 10.0346 20.1064 7.99927H20.7007C21.1579 10.4816 20.9666 13.1334 19.9658 15.7207H19.9675Z" fill="#78C583"/>
<path d="M20.4043 15.0841C21.2323 12.7084 21.405 10.2903 21.0376 8.00098H21.4711C21.6455 10.3496 21.3136 12.7659 20.4043 15.0841Z" fill="#78C583"/>
<path d="M22.0877 8.00098C22.0623 10.1836 21.6543 12.3782 20.833 14.4694C21.5899 12.3443 21.8795 10.1481 21.7508 8.00098H22.0877Z" fill="#78C583"/>
<path d="M21.1377 14.1426C21.8912 12.1495 22.2773 10.0719 22.3179 7.99927H22.6092C22.4382 10.0939 21.9505 12.1699 21.1377 14.1426Z" fill="#78C583"/>
<path d="M23.8755 8.24989C23.8755 8.26683 23.8738 8.28376 23.8704 8.299C23.4285 10.4342 22.4057 12.7608 20.8716 15.0536C21.9367 12.815 22.5683 10.4224 22.7765 8.00098H23.6266C23.7637 8.00098 23.8755 8.11273 23.8755 8.24989Z" fill="#78C583"/>
</g>
<path d="M46.024 7.916C48.6 7.916 50.656 8.5 52.192 9.668C53.744 10.836 54.52 12.988 54.52 16.124C54.52 19.196 53.76 21.364 52.24 22.628C50.72 23.876 48.792 24.5 46.456 24.5H41.944V7.916H46.024ZM45.112 10.292V22.124H46.672C48.08 22.124 49.184 21.692 49.984 20.828C50.784 19.948 51.184 18.38 51.184 16.124C51.184 14.556 50.976 13.348 50.56 12.5C50.16 11.636 49.624 11.052 48.952 10.748C48.296 10.444 47.504 10.292 46.576 10.292H45.112ZM63.8425 7.556C64.8505 7.556 65.7305 7.7 66.4825 7.988C67.2345 8.276 67.9705 8.716 68.6905 9.308L67.0825 11.18C66.1065 10.396 65.0825 10.004 64.0105 10.004C62.7785 10.004 61.7865 10.5 61.0345 11.492C60.2985 12.484 59.9305 14.044 59.9305 16.172C59.9305 18.252 60.2985 19.796 61.0345 20.804C61.7705 21.812 62.7625 22.316 64.0105 22.316C64.6665 22.316 65.2505 22.204 65.7625 21.98C66.2745 21.74 66.8185 21.404 67.3945 20.972L68.8825 22.844C68.3225 23.42 67.6105 23.9 66.7465 24.284C65.8985 24.668 64.9465 24.86 63.8905 24.86C62.4505 24.86 61.1785 24.524 60.0745 23.852C58.9705 23.18 58.1145 22.196 57.5065 20.9C56.8985 19.588 56.5945 18.012 56.5945 16.172C56.5945 14.364 56.9065 12.812 57.5305 11.516C58.1705 10.22 59.0345 9.236 60.1225 8.564C61.2265 7.892 62.4665 7.556 63.8425 7.556ZM80.0031 15.716C81.1391 15.924 82.0511 16.332 82.7391 16.94C83.4431 17.548 83.7951 18.476 83.7951 19.724C83.7951 21.452 83.1871 22.684 81.9711 23.42C80.7551 24.14 79.0511 24.5 76.8591 24.5H71.8671V7.916H76.2111C80.7871 7.916 83.0751 9.324 83.0751 12.14C83.0751 13.116 82.7791 13.916 82.1871 14.54C81.5951 15.148 80.8671 15.54 80.0031 15.716ZM75.0351 10.244V14.732H76.9791C77.8591 14.732 78.5551 14.54 79.0671 14.156C79.5791 13.756 79.8351 13.172 79.8351 12.404C79.8351 11.604 79.5631 11.044 79.0191 10.724C78.4911 10.404 77.6591 10.244 76.5231 10.244H75.0351ZM76.8831 22.124C78.0511 22.124 78.9391 21.948 79.5471 21.596C80.1711 21.244 80.4831 20.58 80.4831 19.604C80.4831 18.66 80.1871 17.98 79.5951 17.564C79.0191 17.148 78.2271 16.94 77.2191 16.94H75.0351V22.124H76.8831Z" fill="#323233"/>
<path d="M95.496 7.676C96.536 7.676 97.432 7.828 98.184 8.132C98.952 8.42 99.712 8.876 100.464 9.5L99.12 10.892C98.528 10.412 97.96 10.068 97.416 9.86C96.872 9.652 96.232 9.548 95.496 9.548C94.648 9.548 93.864 9.78 93.144 10.244C92.44 10.692 91.864 11.42 91.416 12.428C90.968 13.42 90.744 14.684 90.744 16.22C90.744 18.54 91.12 20.236 91.872 21.308C92.64 22.38 93.768 22.916 95.256 22.916C96.472 22.916 97.52 22.668 98.4 22.172V17.18H95.472L95.208 15.332H100.656V23.324C98.944 24.3 97.144 24.788 95.256 24.788C93.08 24.788 91.376 24.06 90.144 22.604C88.928 21.148 88.32 19.02 88.32 16.22C88.32 14.428 88.64 12.892 89.28 11.612C89.936 10.316 90.808 9.34 91.896 8.684C93 8.012 94.2 7.676 95.496 7.676ZM108.909 17.492H106.341V24.5H104.061V7.964H108.405C110.469 7.964 112.029 8.356 113.085 9.14C114.157 9.924 114.693 11.092 114.693 12.644C114.693 13.796 114.397 14.732 113.805 15.452C113.213 16.172 112.317 16.716 111.117 17.084L115.581 24.5H112.869L108.909 17.492ZM108.645 15.74C109.845 15.74 110.749 15.5 111.357 15.02C111.965 14.524 112.269 13.732 112.269 12.644C112.269 11.62 111.957 10.884 111.333 10.436C110.725 9.972 109.741 9.74 108.381 9.74H106.341V15.74H108.645ZM127.064 7.964L126.8 9.788H120.392V15.188H125.96V17.012H120.392V22.676H127.256V24.5H118.112V7.964H127.064ZM139.428 7.964L139.164 9.788H132.756V15.188H138.324V17.012H132.756V22.676H139.62V24.5H130.476V7.964H139.428ZM154.431 24.5H151.383L144.663 10.46C144.759 11.564 144.831 12.588 144.879 13.532C144.943 14.46 144.975 15.588 144.975 16.916V24.5H142.839V7.964H145.815L152.607 22.028C152.559 21.612 152.495 20.884 152.415 19.844C152.335 18.804 152.295 17.852 152.295 16.988V7.964H154.431V24.5Z" fill="#323233"/>
<path d="M170.41 10.128V9.612H172.102C172.072 8.742 171.598 8.292 170.92 8.292C170.356 8.292 170.002 8.652 169.882 9.03H169.27C169.39 8.358 169.996 7.752 170.92 7.752C171.952 7.752 172.69 8.49 172.69 9.696V10.044C172.69 11.31 171.952 12.048 170.92 12.048C170.002 12.048 169.39 11.436 169.27 10.65H169.882C170.002 11.148 170.362 11.508 170.92 11.508C171.598 11.508 172.072 11.058 172.102 10.128H170.41ZM175.33 12L174.424 10.686H174.01V12H173.47V9H174.01V10.194H174.43L175.234 9H175.87L174.874 10.428L175.99 12H175.33ZM177.611 12.048C176.771 12.048 176.231 11.508 176.231 10.614V10.386C176.231 9.498 176.777 8.952 177.611 8.952C178.451 8.952 178.991 9.492 178.991 10.386V10.614C178.991 11.502 178.445 12.048 177.611 12.048ZM177.611 11.532C178.115 11.532 178.427 11.22 178.427 10.614V10.386C178.427 9.786 178.109 9.468 177.611 9.468C177.107 9.468 176.795 9.78 176.795 10.386V10.614C176.795 11.214 177.113 11.532 177.611 11.532ZM183.25 12V9.642L182.92 10.26L181.906 12H181.21V9H181.75V11.358L182.08 10.74L183.094 9H183.79V12H183.25ZM186.73 12V10.716H185.23V12H184.69V9H185.23V10.224H186.73V9H187.27V12H186.73ZM190.211 12V9.642L189.881 10.26L188.867 12H188.171V9H188.711V11.358L189.041 10.74L190.055 9H190.751V12H190.211ZM191.651 12V9H192.191V11.508H193.541V9H194.081V11.508H194.501V12.78H193.961V12H191.651ZM197.084 12V9.642L196.754 10.26L195.74 12H195.044V9H195.584V11.358L195.914 10.74L196.928 9H197.624V12H197.084ZM199.274 12.048C198.65 12.048 198.314 11.712 198.314 11.16C198.314 10.548 198.68 10.182 199.634 10.182H200.234V9.96C200.234 9.624 200.042 9.432 199.634 9.432C199.232 9.432 199.064 9.6 199.034 9.84H198.434C198.464 9.33 198.842 8.952 199.634 8.952C200.384 8.952 200.774 9.342 200.774 9.96V12H200.354L200.288 11.508C200.072 11.85 199.712 12.048 199.274 12.048ZM199.334 11.568C199.856 11.568 200.234 11.19 200.234 10.746V10.638H199.634C199.082 10.638 198.878 10.842 198.878 11.148C198.878 11.4 199.046 11.568 199.334 11.568ZM201.253 9.492V9H203.713V9.492H202.753V12H202.213V9.492H201.253ZM206.324 12V9.642L205.994 10.26L204.98 12H204.284V9H204.824V11.358L205.154 10.74L206.168 9H206.864V12H206.324ZM207.764 12V9H208.904C209.714 9 210.044 9.33 210.044 9.834C210.044 10.08 209.924 10.296 209.672 10.44C210.008 10.578 210.164 10.836 210.164 11.13C210.164 11.67 209.834 12 209.024 12H207.764ZM209.024 10.704H208.304V11.508H209.024C209.456 11.508 209.6 11.364 209.6 11.1C209.6 10.848 209.456 10.704 209.024 10.704ZM208.904 9.492H208.304V10.236H208.904C209.342 10.236 209.48 10.098 209.48 9.864C209.48 9.63 209.342 9.492 208.904 9.492ZM211.632 12.048C211.008 12.048 210.672 11.712 210.672 11.16C210.672 10.548 211.038 10.182 211.992 10.182H212.592V9.96C212.592 9.624 212.4 9.432 211.992 9.432C211.59 9.432 211.422 9.6 211.392 9.84H210.792C210.822 9.33 211.2 8.952 211.992 8.952C212.742 8.952 213.132 9.342 213.132 9.96V12H212.712L212.646 11.508C212.43 11.85 212.07 12.048 211.632 12.048ZM211.692 11.568C212.214 11.568 212.592 11.19 212.592 10.746V10.638H211.992C211.44 10.638 211.236 10.842 211.236 11.148C211.236 11.4 211.404 11.568 211.692 11.568Z" fill="#323233"/>
<path d="M175.108 20.1545C175.108 23.4032 173.117 24.2042 171.193 24.2042H169V16.1946H170.976C173.095 16.1946 175.101 16.8458 175.101 20.162M170.535 23.0589H171.291C172.488 23.0589 173.484 22.5274 173.484 20.162C173.484 17.7965 172.436 17.3474 171.246 17.3474H170.535V23.0589Z" fill="#323233"/>
<path d="M182.916 20.1924C182.916 22.8349 181.553 24.3769 179.397 24.3769C177.242 24.3769 175.864 22.8798 175.864 20.2074C175.864 17.535 177.242 16.0229 179.397 16.0229C181.553 16.0229 182.916 17.5201 182.916 20.1999M177.489 20.2074C177.489 22.3633 178.222 23.2091 179.397 23.2091C180.573 23.2091 181.299 22.3633 181.299 20.1924C181.299 18.0216 180.61 17.1907 179.397 17.1907C178.185 17.1907 177.489 18.0516 177.489 20.2074Z" fill="#323233"/>
<path d="M189.069 17.0036L188.29 17.8869C187.729 17.4003 187.167 17.1907 186.509 17.1907C185.783 17.1907 185.259 17.5126 185.259 18.1414C185.259 18.7253 185.573 18.9798 186.913 19.3915C188.328 19.8331 189.301 20.4095 189.301 21.9216C189.301 23.4337 188.171 24.3769 186.247 24.3769C184.967 24.3769 184.009 23.9278 183.342 23.2765L184.158 22.3708C184.72 22.8947 185.371 23.1942 186.209 23.1942C187.048 23.1942 187.691 22.775 187.691 22.004C187.691 21.3303 187.355 21.0308 186.097 20.6491C184.405 20.1251 183.672 19.4588 183.672 18.2387C183.672 16.9063 184.824 16.0229 186.411 16.0229C187.587 16.0229 188.373 16.3748 189.069 17.0111" fill="#323233"/>
<path d="M195.925 16.8608L195.132 17.7741C194.675 17.3923 194.196 17.1902 193.642 17.1902C192.534 17.1902 191.674 18.0061 191.674 20.1695C191.674 22.3328 192.512 23.1338 193.665 23.1338C194.353 23.1338 194.832 22.8119 195.297 22.4601L196.023 23.3883C195.536 23.8898 194.698 24.3614 193.597 24.3614C191.509 24.3614 190.057 22.8868 190.057 20.162C190.057 17.4372 191.599 16 193.552 16C194.615 16 195.274 16.3069 195.933 16.8459" fill="#323233"/>
<path d="M198.553 20.9855V24.1969H197.019V16.1873H199.421C201.532 16.1873 202.618 16.9508 202.618 18.5377C202.618 19.6306 202.079 20.2744 200.986 20.7086L203.097 24.1969H201.323L199.541 20.9855H198.561H198.553ZM199.511 19.8851C200.469 19.8851 201.001 19.5034 201.001 18.5377C201.001 17.6694 200.499 17.2951 199.384 17.2951H198.553V19.8777H199.511V19.8851Z" fill="#323233"/>
<path d="M205.41 17.3249V19.5631H207.993V20.7009H205.41V23.0514H208.592V24.1967H203.868V16.1946H208.539L208.382 17.3249H205.41Z" fill="#323233"/>
<path d="M215.695 20.1545C215.695 23.4032 213.704 24.2042 211.78 24.2042H209.587V16.1946H211.563C213.682 16.1946 215.688 16.8458 215.688 20.162M211.121 23.0589H211.878C213.075 23.0589 214.071 22.5274 214.071 20.162C214.071 17.7965 213.023 17.3474 211.833 17.3474H211.121V23.0589Z" fill="#323233"/>
<path d="M223.495 20.1924C223.495 22.8349 222.133 24.3769 219.977 24.3769C217.821 24.3769 216.444 22.8798 216.444 20.2074C216.444 17.535 217.821 16.0229 219.977 16.0229C222.133 16.0229 223.495 17.5201 223.495 20.1999M218.068 20.2074C218.068 22.3633 218.802 23.2091 219.977 23.2091C221.152 23.2091 221.878 22.3633 221.878 20.1924C221.878 18.0216 221.19 17.1907 219.977 17.1907C218.764 17.1907 218.068 18.0516 218.068 20.2074Z" fill="#323233"/>
<path d="M230.285 21.8913C230.285 23.6504 228.877 24.1969 226.916 24.1969H224.491V16.1873H226.602C228.675 16.1873 229.933 16.7711 229.933 18.2308C229.933 19.2264 229.207 19.7953 228.443 19.96C229.364 20.1322 230.285 20.5589 230.285 21.8988M226.033 19.4884H226.976C227.814 19.4884 228.361 19.1216 228.361 18.3656C228.361 17.5496 227.799 17.3251 226.751 17.3251H226.025V19.4959L226.033 19.4884ZM228.675 21.8389C228.675 20.8807 227.987 20.5514 227.088 20.5514H226.025V23.0591H226.924C227.942 23.0591 228.675 22.8495 228.675 21.8389Z" fill="#323233"/>
<path d="M232.838 22.3478L232.336 24.2042H230.742L233.249 16.1946H235.151L237.643 24.2042H236.012L235.51 22.3478H232.845H232.838ZM234.163 17.3623L233.137 21.1875H235.188L234.163 17.3623Z" fill="#323233"/>
<path d="M242.374 24.197L239.612 17.7145C239.694 18.4181 239.821 19.4437 239.821 20.9258V24.197H238.421V16.1874H240.368L243.175 22.6774C243.107 22.2358 242.965 21.0755 242.965 19.9377V16.1799H244.365V24.1895H242.374V24.197Z" fill="#323233"/>
<path d="M245.369 16.1946H246.903V24.2042H245.369V16.1946ZM251.649 24.2042H249.823L246.978 19.9299L249.763 16.1946H251.432L248.647 19.8176L251.649 24.1967V24.2042Z" fill="#323233"/>
<defs>
<clipPath id="clip0_5133_166894">
<rect width="32" height="32" fill="white"/>
</clipPath>
</defs>
</svg>
